<!DOCTYPE svg PUBLIC "-//W3C//DTD SVG 1.1//EN" "http://www.w3.org/Graphics/SVG/1.1/DTD/svg11.dtd">

<!-- Uploaded to: SVG Repo, www.svgrepo.com, Transformed by: SVG Repo Mixer Tools -->
<svg width="64px" height="64px" viewBox="-4.8 -4.8 33.60 33.60" fill="none" xmlns="http://www.w3.org/2000/svg" stroke="#ffffff">

<g id="SVGRepo_bgCarrier" stroke-width="0">

<path transform="translate(-4.8, -4.8), scale(2.1)" fill="#DC267F" d="M9.166.33a2.25 2.25 0 00-2.332 0l-5.25 3.182A2.25 2.25 0 00.5 5.436v5.128a2.25 2.25 0 001.084 1.924l5.25 3.182a2.25 2.25 0 002.332 0l5.25-3.182a2.25 2.25 0 001.084-1.924V5.436a2.25 2.25 0 00-1.084-1.924L9.166.33z" strokewidth="0"/>

</g>

<g id="SVGRepo_tracerCarrier" stroke-linecap="round" stroke-linejoin="round"/>

<g id="SVGRepo_iconCarrier"> <path d="M2 8L8 10" stroke="#ffffff" stroke-width="1.5" stroke-linecap="round"/> <path d="M6 4L8 7" stroke="#ffffff" stroke-width="1.5" stroke-linecap="round"/> <path d="M11 6.56252L14.7001 2.93755C16.1597 1.50753 18.7629 1.73938 20.5145 3.4554C22.266 5.17142 22.5027 7.72176 21.043 9.15178L18.1358 12" stroke="#ffffff" stroke-width="1.5" stroke-linecap="round"/> <path d="M15 15.5866L10.9653 20.001C9.57254 21.5247 7.0887 21.2777 5.41744 19.4492C3.74618 17.6207 3.52038 14.9032 4.91309 13.3795L6.17395 12" stroke="#ffffff" stroke-width="1.5" stroke-linecap="round"/> </g>

</svg>