<?xml version="1.0" encoding="utf-8"?>
<!-- Generator: Adobe Illustrator 28.0.0, SVG Export Plug-In . SVG Version: 6.00 Build 0)  -->
<svg version="1.1" id="Layer_1" xmlns="http://www.w3.org/2000/svg" xmlns:xlink="http://www.w3.org/1999/xlink" x="0px" y="0px"
	 viewBox="0 0 1000 1000" style="enable-background:new 0 0 1000 1000;" xml:space="preserve">
<style type="text/css">
	.st0{display:none;}
	.st1{display:inline;}
	.st2{fill:#7795FE;}
	.st3{fill:#D13485;}
</style>
<g class="st0">
	<g class="st1">
		<path class="st2" d="M555.9,307.5h76.2l-104.3,385h-66l-28.1-107.2L399.7,456l-33.2,129.2l-28.5,107.2h-64.7l-104.7-385h76.2
			L282.2,461l24.3,109.5l67.7-262.9h50.2L493.8,572l26-111.1L555.9,307.5z"/>
	</g>
	<g class="st1">
		<path class="st3" d="M755.7,692.5l-104.3-385h76.2l103.9,385"/>
		<path class="st3" d="M527.8,692.5l103.9-385H708l-104.3,385"/>
		<path class="st3" d="M595.9,578.3l1-71.3h162.3l-1.8,71.3"/>
	</g>
</g>
<g>
	<g>
		<path class="st2" d="M131.8,703L8.1,219h111.7c45.7,221.9,66,321,71.6,374.4h0.7c18.3-89.2,65.3-257.8,93.4-374.4h94.1
			c25.3,92.7,73.7,280.2,89.9,369.4h0.7c16.2-106.8,63.2-294.3,80.8-369.4h101.1L521.6,703H412.7c-25.3-107.5-68.1-264.1-85-347H327
			c-17.6,86.4-61.1,249.3-87.1,347H131.8z"/>
	</g>
	<g>
		<path class="st3" d="M651.4,591.3L624.1,703H520.8l121.6-483.9h131.3L988.6,703H878.3l-49.9-111.7H651.4z M798.4,505.6
			c-43.5-102.5-71-167.9-86.8-211.4h-0.7c-7.7,47.8-24.9,123.6-44.5,211.4H798.4z"/>
	</g>
</g>
</svg>
