<!DOCTYPE svg PUBLIC "-//W3C//DTD SVG 1.1//EN" "http://www.w3.org/Graphics/SVG/1.1/DTD/svg11.dtd">

<svg fill="#ffffff" width="128px" height="128px" viewBox="-3.8 -3.8 45.60 45.60" xmlns="http://www.w3.org/2000/svg" class="cf-icon-svg" stroke="#ffffff" transform="matrix(1, 0, 0, 1, 0, 0) rotate(0)">

<g id="SVGRepo_bgCarrier" stroke-width="0" transform="translate(0,0), scale(1)">

<rect x="-3.8" y="-3.8" width="45.60" height="45.60" rx="22.8" fill="#E79F00" stroke-width="0"/>

</g>

<g id="SVGRepo_tracerCarrier" stroke-linecap="round" stroke-linejoin="round" stroke="#CCCCCC" stroke-width="0.19"/>

<g id="SVGRepo_iconCarrier">

<path d="M28.294 30.976a2.224 2.224 0 0 1-3.134 0l-6.79-6.79a11.15 11.15 0 1 1 3.136-3.136l6.788 6.79a2.224 2.224 0 0 1 0 3.136zm-12.722-7.806a8.976 8.976 0 1 0-3.362.654 8.886 8.886 0 0 0 3.362-.654z"/>

</g>

</svg>
